<svg width="217" height="251" viewBox="0 0 217 251" fill="none" xmlns="http://www.w3.org/2000/svg">
<rect width="217" height="251" fill="#E5E7E8"/>
<path d="M108.488 83C97.575 83.0738 87.1469 87.5683 79.539 95.4772C71.931 103.386 67.7787 114.049 68.0118 125.077C67.6576 139.933 75.2963 153.817 87.969 161.35C100.642 168.883 116.358 168.883 129.031 161.35C141.704 153.817 149.342 139.933 148.988 125.077C149.215 114.046 145.057 103.384 137.446 95.4758C129.834 87.5677 119.404 83.0739 108.488 83ZM103.787 89.8426C104.377 89.6765 104.985 89.5808 105.597 89.5575V105.12C102.499 104.7 99.4461 103.992 96.477 103.005C98.4192 98.3551 100.871 93.94 103.787 89.8426ZM105.597 110.917V122.25H91.4938C91.9032 117.381 92.9464 112.588 94.5965 107.994C98.1173 109.419 101.808 110.369 105.574 110.822L105.597 110.917ZM96.0304 91.9096C94.2649 94.7776 92.7396 97.7896 91.4703 100.914C89.6248 100.028 87.835 99.0287 86.111 97.9206C89.0465 95.3247 92.4232 93.2881 96.0774 91.9096H96.0304ZM82.2796 101.96C84.648 103.513 87.1223 104.894 89.6839 106.094C87.7848 111.306 86.5602 116.744 86.0405 122.274H74.2878C74.7093 114.807 77.5133 107.68 82.2796 101.96ZM74.3583 127.976H86.111C86.5548 133.525 87.7817 138.981 89.7544 144.179C87.1848 145.387 84.7027 146.776 82.3266 148.337C77.5924 142.562 74.8305 135.395 74.4523 127.904L74.3583 127.976ZM86.111 152.329C87.8545 151.164 89.6857 150.139 91.5878 149.264C92.7886 152.467 94.2921 155.547 96.0774 158.459C92.4332 157.053 89.0839 154.965 86.205 152.305L86.111 152.329ZM105.644 160.692C105.027 160.643 104.414 160.548 103.811 160.407C100.912 156.28 98.5057 151.822 96.6415 147.125C99.6024 146.158 102.649 145.482 105.738 145.106L105.644 160.692ZM105.644 139.309C101.9 139.74 98.2307 140.683 94.7375 142.112C93.0954 137.516 92.0447 132.725 91.6113 127.857H105.715L105.644 139.309ZM142.407 122.321H130.654C130.139 116.791 128.915 111.352 127.011 106.141C129.562 104.937 132.029 103.556 134.391 102.007C139.177 107.698 142.021 114.796 142.501 122.25L142.407 122.321ZM130.654 97.9682C128.939 99.063 127.148 100.032 125.295 100.867C123.989 97.7407 122.416 94.7356 120.594 91.8859C124.25 93.2379 127.628 95.2595 130.56 97.8494L130.654 97.9682ZM111.191 89.605C111.802 89.6325 112.408 89.72 113.001 89.8663C115.936 93.9477 118.382 98.366 120.288 103.029C117.33 104.027 114.284 104.735 111.191 105.143V89.605ZM111.191 110.988C114.944 110.519 118.619 109.552 122.121 108.113C123.772 112.706 124.815 117.5 125.224 122.369H111.121L111.191 110.988ZM111.191 127.999H125.295C124.873 132.862 123.847 137.652 122.239 142.255C118.74 140.81 115.063 139.85 111.309 139.404L111.191 127.999ZM113.001 160.407C112.403 160.529 111.799 160.616 111.191 160.668V145.035C114.25 145.411 117.265 146.087 120.194 147.054C118.368 151.746 116.001 156.204 113.142 160.335L113.001 160.407ZM120.711 158.363C122.53 155.439 124.065 152.344 125.295 149.121C127.182 150.02 129.004 151.052 130.748 152.21C127.863 154.856 124.504 156.921 120.852 158.292L120.711 158.363ZM134.697 148.313C132.337 146.753 129.871 145.363 127.316 144.156C129.289 138.966 130.516 133.517 130.96 127.976H142.712C142.274 135.436 139.463 142.553 134.697 148.266V148.313Z" fill="#D4D9DB"/>
</svg>
