<svg width="466" height="481" viewBox="0 0 466 481" fill="none" xmlns="http://www.w3.org/2000/svg">
<path d="M232.933 0C170.148 0.422727 110.154 26.1592 66.3846 71.4468C22.6152 116.734 -1.27324 177.79 0.0678978 240.942C-1.96961 326.011 41.976 405.51 114.884 448.647C187.791 491.784 278.209 491.784 351.116 448.647C424.024 405.51 467.97 326.011 465.932 240.942C467.237 177.777 443.317 116.722 399.527 71.4389C355.736 26.1555 295.729 0.423338 232.933 0ZM205.887 39.1819C209.282 38.2308 212.777 37.6829 216.299 37.5494V126.661C198.476 124.258 180.912 120.205 163.83 114.553C175.004 87.9262 189.111 62.6446 205.887 39.1819ZM216.299 159.857V224.752H135.162C137.517 196.871 143.519 169.424 153.012 143.123C173.267 151.279 194.499 156.722 216.164 159.313L216.299 159.857ZM161.261 51.0182C151.104 67.4407 142.329 84.6882 135.027 102.581C124.409 97.5081 114.113 91.7832 104.194 85.4384C121.082 70.5735 140.509 58.9116 161.532 51.0182H161.261ZM82.1519 108.567C95.7775 117.46 110.012 125.37 124.749 132.239C113.824 162.085 106.779 193.226 103.789 224.888H36.1741C38.5991 182.134 54.7309 141.321 82.1519 108.567ZM36.5797 257.54H104.194C106.748 289.315 113.806 320.56 125.155 350.325C110.372 357.24 96.092 365.195 82.4224 374.133C55.1862 341.062 39.2967 300.024 37.1206 257.132L36.5797 257.54ZM104.194 396.989C114.225 390.319 124.76 384.451 135.703 379.439C142.611 397.783 151.261 415.415 161.532 432.09C140.566 424.04 121.297 412.086 104.735 396.853L104.194 396.989ZM216.57 444.878C213.018 444.601 209.492 444.055 206.022 443.246C189.346 419.617 175.502 394.09 164.777 367.195C181.811 361.656 199.337 357.783 217.111 355.631L216.57 444.878ZM216.57 322.435C195.028 324.902 173.92 330.303 153.823 338.488C144.376 312.167 138.331 284.732 135.838 256.859H216.975L216.57 322.435ZM428.068 225.16H360.454C357.494 193.493 350.448 162.348 339.493 132.511C354.174 125.618 368.362 117.708 381.955 108.839C409.489 141.425 425.849 182.073 428.609 224.752L428.068 225.16ZM360.454 85.7105C350.585 91.9796 340.281 97.5266 329.621 102.308C322.109 84.4078 313.06 67.2005 302.575 50.8821C323.611 58.6241 343.048 70.2002 359.912 85.0303L360.454 85.7105ZM248.484 37.8215C251.995 37.9788 255.482 38.48 258.896 39.318C275.778 62.6888 289.85 87.9886 300.817 114.689C283.8 120.405 266.274 124.46 248.484 126.797V37.8215ZM248.484 160.265C270.072 157.579 291.214 152.044 311.365 143.803C320.858 170.105 326.86 197.551 329.216 225.432H248.078L248.484 160.265ZM248.484 257.676H329.621C327.196 285.521 321.29 312.947 312.042 339.305C291.911 331.029 270.758 325.537 249.16 322.979L248.484 257.676ZM258.896 443.246C255.457 443.944 251.98 444.444 248.484 444.742V355.222C266.08 357.376 283.427 361.249 300.277 366.787C289.771 393.653 276.154 419.179 259.708 442.838L258.896 443.246ZM303.251 431.546C313.718 414.802 322.549 397.078 329.621 378.623C340.48 383.767 350.964 389.677 360.995 396.309C344.398 411.464 325.073 423.285 304.063 431.137L303.251 431.546ZM383.713 373.997C370.136 365.061 355.947 357.105 341.251 350.189C352.6 320.471 359.658 289.271 362.212 257.54H429.826C427.305 300.256 411.13 341.01 383.713 373.725V373.997Z" fill="#58BD82"/>
</svg>
