<svg width="133" height="25" viewBox="0 0 133 25" fill="none" xmlns="http://www.w3.org/2000/svg">
<path d="M65.6523 24.1734V10.9524C65.6523 9.11867 64.4546 7.95933 62.2523 7.95933C60.05 7.95933 58.8302 9.29146 58.8302 10.9803V24.1734H55.4081V10.9524C55.4081 9.11867 54.2435 7.95933 51.9861 7.95933C49.8445 7.95933 48.5419 9.29146 48.5419 10.9803V24.1734H45.1419V5.33966H48.1666L48.2991 7.08982C49.4526 5.7131 50.6559 4.9272 53.1452 4.9272C54.9769 4.9192 56.6842 5.86231 57.6656 7.42425C58.7695 6.01408 60.4861 4.9272 63.3562 4.9272C64.8843 4.86933 66.3677 5.45426 67.4526 6.54248C68.5376 7.6307 69.1268 9.12469 69.0799 10.6682V24.1734H65.6523Z" fill="#2A9858"/>
<path d="M110.079 8.10985C107.385 8.10985 104.394 9.94362 104.394 14.5866V24.1957H100.971V5.36198H104.206L104.327 8.19345C105.188 6.0364 107.357 5.13345 109.891 5.13345H110.443V8.12099L110.079 8.10985Z" fill="#2A9858"/>
<path d="M119.456 5.0387C116.894 5.05601 114.445 6.11041 112.658 7.9658C110.872 9.82119 109.897 12.3226 109.952 14.9098C109.869 18.395 111.662 21.652 114.638 23.4193C117.614 25.1866 121.304 25.1866 124.28 23.4193C127.256 21.652 129.049 18.395 128.966 14.9098C129.02 12.322 128.043 9.82069 126.256 7.96548C124.469 6.11026 122.019 5.05604 119.456 5.0387ZM118.352 6.64394C118.491 6.60498 118.634 6.58253 118.777 6.57706V10.2279C118.05 10.1294 117.333 9.96338 116.636 9.73181C117.092 8.64095 117.668 7.60518 118.352 6.64394ZM118.777 11.5879V14.2466H115.466C115.562 13.1043 115.807 11.9798 116.194 10.9023C117.021 11.2364 117.888 11.4594 118.772 11.5656L118.777 11.5879ZM116.531 7.12886C116.116 7.80168 115.758 8.50829 115.46 9.24132C115.027 9.03351 114.606 8.79896 114.202 8.53902C114.891 7.93002 115.684 7.45225 116.542 7.12886H116.531ZM113.302 9.48656C113.858 9.8509 114.439 10.175 115.041 10.4564C114.595 11.6791 114.307 12.955 114.185 14.2521H111.425C111.524 12.5005 112.183 10.8285 113.302 9.48656ZM111.442 15.5898H114.202C114.306 16.8917 114.594 18.1717 115.057 19.3912C114.454 19.6744 113.871 20.0004 113.313 20.3666C112.201 19.0117 111.553 17.3304 111.464 15.5731L111.442 15.5898ZM114.202 21.303C114.611 21.0297 115.041 20.7893 115.488 20.5839C115.77 21.3355 116.123 22.0578 116.542 22.741C115.686 22.4112 114.9 21.9215 114.224 21.2974L114.202 21.303ZM118.788 23.2649C118.643 23.2535 118.499 23.2312 118.358 23.198C117.677 22.23 117.112 21.1842 116.674 20.0823C117.37 19.8554 118.085 19.6967 118.81 19.6085L118.788 23.2649ZM118.788 18.2485C117.909 18.3496 117.048 18.5709 116.227 18.9062C115.842 17.8279 115.595 16.7039 115.493 15.562H118.805L118.788 18.2485ZM127.421 14.2633H124.661C124.54 12.9659 124.253 11.6899 123.806 10.4675C124.405 10.1851 124.984 9.86108 125.539 9.49771C126.662 10.8328 127.33 12.498 127.443 14.2466L127.421 14.2633ZM124.661 8.55017C124.258 8.80701 123.838 9.03427 123.403 9.23017C123.096 8.4968 122.727 7.79183 122.299 7.12329C123.157 7.44047 123.951 7.91473 124.639 8.5223L124.661 8.55017ZM120.091 6.5882C120.234 6.59465 120.377 6.61518 120.516 6.64952C121.205 7.607 121.779 8.6435 122.227 9.73738C121.532 9.97158 120.817 10.1377 120.091 10.2334V6.5882ZM120.091 11.6046C120.972 11.4945 121.835 11.2678 122.658 10.9302C123.045 12.0077 123.29 13.1322 123.386 14.2744H120.074L120.091 11.6046ZM120.091 15.5954H123.403C123.304 16.7362 123.063 17.8598 122.685 18.9397C121.863 18.6006 121 18.3756 120.119 18.2708L120.091 15.5954ZM120.516 23.198C120.376 23.2266 120.234 23.2471 120.091 23.2594V19.5918C120.809 19.68 121.517 19.8387 122.205 20.0656C121.776 21.1663 121.22 22.2121 120.549 23.1813L120.516 23.198ZM122.326 22.7187C122.754 22.0327 123.114 21.3066 123.403 20.5505C123.846 20.7613 124.274 21.0034 124.683 21.2751C124.006 21.896 123.217 22.3803 122.359 22.702L122.326 22.7187ZM125.61 20.361C125.056 19.9949 124.477 19.6689 123.877 19.3856C124.341 18.1681 124.629 16.8899 124.733 15.5898H127.493C127.39 17.3399 126.729 19.0095 125.61 20.3498V20.361Z" fill="#2A9858"/>
<path d="M98.7747 8.14885V5.36197H93.0731V0H89.7614V5.36197H86.6098V8.14885H89.7614V19.0679C89.7614 22.5236 92.1292 24.4298 95.1098 24.4298C95.5733 24.4459 96.0366 24.3914 96.4841 24.2682C96.8202 24.1777 97.1195 23.9827 97.3396 23.7108V21.1079C96.78 21.3606 96.169 21.4752 95.5568 21.4423C94.92 21.5012 94.2892 21.2784 93.8276 20.8315C93.3659 20.3845 93.1189 19.7575 93.1503 19.1125V8.14885H98.7747Z" fill="#2A9858"/>
<path d="M85.8701 12.0839C85.7653 8.58361 83.3919 4.96066 78.9487 4.96066C75.0078 4.96066 70.9896 8.57247 70.9896 14.8095C70.9896 20.6675 74.8919 24.6194 79.5724 24.6194C81.2379 24.6891 82.8896 24.2875 84.3412 23.46H84.3688C84.6695 23.2449 84.9169 22.9626 85.0919 22.6351V19.7479C83.7042 20.9735 81.9122 21.6297 80.0692 21.5872C76.338 21.5872 74.5938 18.2987 74.5055 15.5898H85.6052C85.7565 14.713 85.845 13.8264 85.8701 12.9367C85.9143 12.6246 85.8701 12.3125 85.8701 12.0839ZM82.4481 12.7695H74.6932C75.1182 10.0774 77.0997 7.90919 79.1088 7.90919C81.1841 7.90919 82.5308 10.1387 82.5308 12.1453C82.5301 12.3511 82.5097 12.5564 82.4701 12.7584L82.4481 12.7695Z" fill="#2A9858"/>
<path d="M126.858 4.26951C126.814 3.3361 127.283 2.45424 128.077 1.97443C128.871 1.49463 129.862 1.49463 130.656 1.97443C131.45 2.45424 131.918 3.3361 131.875 4.26951C131.918 5.20291 131.45 6.08478 130.656 6.56458C129.862 7.04438 128.871 7.04438 128.077 6.56458C127.283 6.08478 126.814 5.20291 126.858 4.26951ZM129.375 7.42426C131.093 7.41197 132.478 5.99777 132.471 4.26218C132.464 2.52658 131.068 1.12396 129.349 1.12598C127.63 1.128 126.237 2.5339 126.234 4.26951C126.228 5.11095 126.558 5.91944 127.148 6.51288C127.739 7.10631 128.542 7.43476 129.375 7.42426ZM128.723 4.52033H129.342L130.285 6.09213H130.887L129.877 4.49246C130.132 4.48986 130.375 4.38167 130.55 4.19312C130.724 4.00458 130.814 3.75216 130.799 3.49475C130.799 2.77574 130.379 2.4636 129.54 2.4636H128.183V6.09213H128.734L128.723 4.52033ZM128.723 4.05213V2.90393H129.474C129.849 2.90393 130.247 2.98754 130.247 3.46131C130.247 4.01869 129.844 4.05213 129.386 4.05213H128.723Z" fill="#2A9858"/>
<path d="M5.967 7.783C7.327 7.783 8.058 8.276 8.058 9.364C8.058 10.435 7.327 10.979 5.967 10.979H3.383V7.783H5.967ZM8.415 18.17C9.707 18.17 10.268 17.49 10.268 15.671V14.209H9.078V15.705C9.078 16.776 8.874 17.014 8.449 17.014C7.905 17.014 7.684 16.623 7.684 14.549C7.684 13.189 7.327 12.407 6.783 11.982C8.33 11.744 9.401 10.928 9.401 9.364C9.401 7.477 7.956 6.61 6.018 6.61H0.255V7.783H2.125V16.844H0.255V18.017H5.117V16.844H3.383V12.152H4.216C6.018 12.152 6.409 12.917 6.409 14.838C6.409 17.218 7.072 18.17 8.415 18.17ZM15.1834 9.806C16.5264 9.806 17.3254 10.52 17.4954 12.458H12.7184C12.9054 10.656 13.6874 9.806 15.1834 9.806ZM18.8724 16.028L17.7334 15.314C17.3084 16.232 16.5604 16.861 15.3704 16.861C13.6364 16.861 12.7354 15.688 12.6674 13.631H18.8724C18.8894 13.444 18.9064 13.223 18.9064 13.019C18.9064 10.197 17.5294 8.48 15.2174 8.48C12.8374 8.48 11.2904 10.282 11.2904 13.24C11.2904 16.793 12.9394 18.17 15.3704 18.17C16.9174 18.17 18.1074 17.405 18.8724 16.028ZM23.2812 16.929C22.1082 16.929 21.6322 16.385 21.6322 15.688C21.6322 14.787 22.1932 14.107 25.6272 13.478V14.974C25.6272 16.249 24.5052 16.929 23.2812 16.929ZM27.2422 18.085C27.9562 18.085 28.5512 17.745 28.9762 17.116L28.2962 16.385C28.1262 16.623 27.8882 16.878 27.5142 16.878C27.0722 16.878 26.8852 16.623 26.8852 15.943V11.608C26.8852 9.534 25.7972 8.48 23.6212 8.48C21.8022 8.48 20.4422 9.67 20.4422 10.639C20.4422 11.2 20.7992 11.574 21.3432 11.574C21.9042 11.574 22.2782 11.2 22.2782 10.639C22.2782 10.452 22.2442 10.299 22.1592 10.163C22.5332 9.891 23.0772 9.738 23.6552 9.738C24.9812 9.738 25.6272 10.503 25.6272 11.778V12.407C21.4792 13.172 20.2042 13.92 20.2042 15.841C20.2042 17.388 21.2412 18.153 22.8902 18.153C24.2502 18.153 25.0322 17.609 25.6612 16.623C25.7972 17.643 26.3242 18.085 27.2422 18.085ZM30.6951 13.359C30.6951 11.081 31.6811 9.755 33.3641 9.755C35.0301 9.755 35.9821 11.03 35.9821 13.223C35.9991 15.535 35.0301 16.895 33.3301 16.895C31.6471 16.895 30.6951 15.586 30.6951 13.359ZM35.9991 16.385V18H38.6511V16.827H37.2571V5.335H34.5881V6.508H35.9991V10.265C35.4041 9.16 34.4691 8.48 33.0581 8.48C30.9331 8.48 29.3861 10.231 29.3861 13.359C29.3861 16.674 31.2561 18.17 33.0581 18.17C34.4691 18.17 35.5061 17.524 35.9991 16.385Z" fill="#51695B"/>
<rect y="23" width="39" height="1.6" fill="#51695B"/>
</svg>
